<?xml version="1.0" standalone="no"?>
<!DOCTYPE svg PUBLIC "-//W3C//DTD SVG 20010904//EN"
 "http://www.w3.org/TR/2001/REC-SVG-20010904/DTD/svg10.dtd">
<svg version="1.0" xmlns="http://www.w3.org/2000/svg"
 width="582.000000pt" height="403.000000pt" viewBox="0 0 582.000000 403.000000"
 preserveAspectRatio="xMidYMid meet">

<g transform="translate(0.000000,403.000000) scale(0.100000,-0.100000)"
fill="#ffffff" stroke="none">
<path d="M2010 3709 c-578 -38 -1133 -217 -1487 -480 -358 -265 -555 -664
-514 -1039 40 -363 225 -700 564 -1026 547 -526 1425 -912 2340 -1029 404 -51
812 -53 1167 -4 439 60 835 197 1130 391 47 31 95 64 106 74 12 11 44 38 72
62 192 162 331 373 391 592 49 177 49 354 0 557 -123 515 -634 1050 -1336
1400 -203 101 -218 108 -363 166 -643 258 -1397 381 -2070 336z m778 -83 c787
-84 1561 -369 2117 -781 144 -107 178 -136 316 -276 115 -116 219 -245 295
-369 117 -189 189 -406 201 -609 13 -227 -65 -472 -211 -667 -270 -360 -751
-606 -1386 -708 -214 -35 -328 -43 -600 -45 -473 -3 -908 60 -1360 195 -240
72 -513 179 -700 274 -30 15 -71 36 -90 45 -70 35 -227 129 -315 188 -497 335
-809 721 -917 1135 -27 102 -31 135 -31 257 -1 121 3 154 26 244 163 637 898
1065 1947 1135 118 8 572 -4 708 -18z"/>
<path d="M2380 3563 c-74 -2 -145 -5 -157 -8 -31 -7 -29 -31 2 -39 30 -8 37
-32 33 -107 -2 -45 -7 -56 -25 -64 -29 -12 -29 -23 -1 -34 14 -5 17 -10 10
-15 -7 -4 -12 -17 -12 -29 0 -24 31 -119 55 -173 8 -16 11 -41 8 -53 -7 -26 9
-41 43 -41 42 0 48 23 28 102 -10 40 -18 78 -19 83 -3 36 -19 102 -27 113 -8
9 16 12 113 13 229 2 228 1 250 29 43 56 -3 91 -63 48 -28 -19 -46 -23 -108
-23 -74 0 -75 0 -78 28 -3 23 0 27 21 27 14 0 30 -7 37 -15 15 -18 51 -20 68
-3 7 7 12 26 12 43 0 17 -5 36 -12 43 -19 19 -56 14 -68 -8 -7 -13 -21 -20
-41 -20 -27 0 -30 3 -27 28 3 26 6 27 66 30 42 2 73 -2 94 -13 39 -19 62 -19
78 0 10 12 9 20 -4 40 -15 23 -22 25 -79 23 -34 -1 -123 -4 -197 -5z"/>
<path d="M1776 3524 c-78 -17 -130 -40 -121 -54 4 -6 19 -10 35 -10 33 0 41
-12 70 -96 l19 -53 -27 -20 c-24 -18 -25 -20 -9 -27 10 -3 78 5 150 19 73 14
154 29 181 33 58 8 88 34 84 72 -2 22 -9 28 -35 30 -24 2 -34 -2 -43 -18 -13
-24 -67 -50 -103 -50 -20 0 -29 10 -45 48 -34 81 -35 90 -13 104 61 38 -14 49
-143 22z"/>
<path d="M2938 3475 c-29 -45 -157 -135 -203 -142 -78 -13 -21 -44 107 -59 61
-7 86 8 53 33 -17 12 -15 13 18 13 20 0 60 -5 89 -12 50 -10 52 -11 26 -20
-59 -20 -19 -40 124 -63 94 -15 148 -13 148 6 0 5 -10 14 -22 20 -13 6 -43 45
-68 87 -81 136 -123 172 -204 172 -41 0 -48 -3 -68 -35z m83 -97 c11 -20 9
-20 -27 -13 -49 9 -54 13 -31 30 23 16 44 10 58 -17z"/>
<path d="M3420 3420 c0 -6 6 -19 13 -31 19 -31 -38 -130 -84 -146 -33 -11 -40
-30 -16 -45 22 -15 173 -58 200 -58 28 0 36 17 16 37 -16 16 -1 53 20 53 33 0
44 -26 37 -83 -4 -28 -9 -86 -12 -127 -3 -41 -10 -77 -15 -81 -20 -12 -5 -44
22 -47 34 -4 57 22 38 44 -9 11 -9 18 -2 22 6 4 17 32 25 62 12 50 16 55 38
52 49 -5 53 -9 45 -55 -3 -23 -8 -61 -9 -85 -2 -26 -10 -48 -21 -55 -14 -11
-14 -15 -3 -23 21 -17 44 -23 58 -14 14 9 69 162 70 193 0 15 6 14 38 -12 79
-62 185 -78 151 -23 -11 18 -10 24 5 41 11 12 25 21 31 21 7 0 44 -49 84 -110
39 -60 77 -110 84 -110 6 0 -1 -11 -17 -23 -20 -16 -27 -28 -21 -37 6 -10 4
-12 -9 -7 -13 5 -29 -4 -54 -29 -20 -20 -47 -43 -59 -51 -24 -16 -31 -43 -12
-43 21 0 73 35 139 94 8 7 25 17 37 20 27 9 64 53 57 69 -2 7 25 45 62 85 57
63 70 72 97 69 23 -1 32 3 35 15 2 13 -16 27 -67 53 -95 48 -128 46 -101 -4 7
-14 5 -23 -10 -36 -24 -22 -20 -25 -95 83 -51 74 -68 91 -115 114 -61 30 -110
36 -110 14 0 -8 5 -18 10 -21 21 -13 9 -42 -37 -92 -40 -42 -53 -51 -78 -49
-51 4 -85 33 -85 71 0 25 -7 39 -27 54 l-28 20 26 1 c41 0 73 31 66 63 -5 19
-23 34 -69 56 -33 17 -66 31 -73 31 -6 0 -61 16 -121 35 -112 36 -154 43 -154
25z m228 -99 c21 -13 10 -46 -17 -49 -32 -5 -46 11 -32 37 12 22 28 26 49 12z"/>
<path d="M2061 3301 c-18 -11 -6 -82 20 -115 10 -13 19 -31 19 -39 0 -8 7 -28
15 -43 8 -16 15 -39 15 -51 0 -48 21 -64 64 -47 23 9 20 51 -4 64 -11 6 -18
15 -15 21 8 12 -24 159 -38 177 -5 6 -6 12 -2 12 4 0 2 7 -5 15 -14 17 -47 20
-69 6z"/>
<path d="M1793 3222 c-5 -4 -15 -17 -22 -29 -13 -26 8 -100 48 -165 19 -31 29
-38 55 -38 43 0 76 24 59 41 -7 7 -13 19 -13 26 0 17 -91 160 -106 166 -6 3
-15 2 -21 -1z"/>
<path d="M1936 3204 c-12 -12 -15 -25 -10 -52 9 -48 11 -52 37 -52 16 0 19 -3
8 -9 -18 -12 -7 -76 17 -93 9 -7 18 -26 19 -43 2 -30 29 -59 44 -49 14 8 10
79 -6 110 -8 16 -15 38 -15 50 0 11 -3 24 -7 28 -4 4 -8 21 -9 38 -2 30 -30
78 -51 85 -6 2 -18 -4 -27 -13z"/>
<path d="M2466 3188 c-19 -27 -20 -52 -4 -81 6 -12 11 -37 9 -55 -2 -39 16
-112 28 -112 12 0 23 29 15 41 -3 5 0 9 5 9 6 0 11 11 11 25 0 21 5 25 28 25
50 0 58 13 33 54 -13 20 -31 36 -40 36 -13 0 -18 8 -19 32 -1 49 -39 64 -66
26z m99 -99 c-4 -5 -14 -8 -23 -8 -15 1 -15 2 1 6 9 2 14 9 11 15 -4 7 -2 8 5
4 6 -4 9 -12 6 -17z"/>
<path d="M2676 3191 c-8 -12 31 -101 44 -101 5 0 10 -7 10 -16 0 -8 12 -31 26
-50 14 -18 24 -41 20 -49 -7 -20 29 -38 60 -31 13 4 24 10 24 15 0 16 -29 33
-45 27 -9 -3 -13 -2 -10 3 3 5 0 13 -6 17 -8 5 -8 8 1 14 13 8 3 60 -12 60 -6
0 -8 7 -4 15 6 16 -12 65 -24 65 -4 0 -10 9 -13 20 -4 14 -14 20 -35 20 -17 0
-33 -4 -36 -9z"/>
<path d="M2906 3175 c-9 -9 -16 -18 -16 -21 0 -2 18 -40 41 -83 39 -76 42 -79
72 -75 l32 3 -25 -19 c-14 -11 -29 -20 -34 -20 -5 0 -3 -7 4 -15 14 -17 48
-19 70 -5 13 9 12 12 -4 21 -13 8 -15 13 -6 19 9 6 9 13 1 28 -6 11 -11 28
-11 37 0 9 -9 35 -20 57 -11 23 -20 50 -20 60 0 10 -6 18 -12 18 -7 0 -22 3
-34 6 -13 3 -28 -1 -38 -11z"/>
<path d="M797 3154 c-4 -4 -17 -7 -29 -8 -17 -1 -24 -8 -26 -29 -4 -33 18 -53
101 -94 l59 -28 29 33 c16 18 29 39 29 47 0 18 -57 55 -85 55 -11 0 -29 7 -39
15 -22 16 -30 18 -39 9z"/>
<path d="M3460 3105 c-7 -8 -9 -15 -5 -15 4 0 2 -7 -5 -15 -20 -25 -4 -45 35
-45 l36 0 -3 43 c-2 34 -7 43 -24 45 -11 2 -27 -4 -34 -13z"/>
<path d="M3177 3074 c-11 -12 -8 -59 5 -72 21 -21 57 -14 64 12 10 42 1 61
-31 64 -17 2 -34 0 -38 -4z"/>
<path d="M1016 3048 c5 -7 2 -9 -7 -6 -8 3 -25 -3 -37 -13 -19 -15 -21 -22
-12 -38 6 -12 23 -24 38 -27 15 -4 41 -15 58 -25 17 -10 34 -16 37 -13 3 4 19
-7 34 -24 19 -21 41 -32 71 -36 23 -3 60 -9 82 -12 47 -7 49 1 13 45 -24 28
-35 33 -76 34 -38 2 -49 6 -54 22 -7 24 -21 35 -90 75 -57 33 -68 36 -57 18z"/>
<path d="M532 3010 c-29 -12 -46 -54 -32 -81 6 -10 23 -22 38 -25 15 -4 34
-12 42 -19 20 -17 105 -55 123 -55 8 0 34 -11 58 -24 24 -14 63 -32 87 -41 40
-16 44 -16 61 -1 18 17 20 16 31 -21 16 -49 20 -53 64 -63 30 -7 39 -4 61 16
15 14 25 32 23 41 -4 22 -68 65 -86 58 -16 -6 -58 15 -123 62 -26 19 -57 33
-67 31 -10 -2 -32 10 -49 27 -16 17 -45 38 -64 47 -37 18 -136 58 -141 57 -2
0 -13 -4 -26 -9z"/>
<path d="M2580 3003 c0 -15 -2 -16 -10 -3 -5 8 -10 10 -10 4 0 -15 46 -64 60
-64 6 0 8 -10 4 -24 -4 -18 -1 -27 15 -36 12 -6 22 -9 22 -8 7 16 6 58 -1 58
-4 0 -15 19 -22 43 -11 30 -21 43 -36 45 -16 2 -22 -2 -22 -15z"/>
<path d="M3439 3013 c-7 -49 -6 -153 1 -153 19 0 47 57 53 108 l6 52 -29 0
c-17 0 -30 -3 -31 -7z"/>
<path d="M3201 2961 c-18 -12 -4 -51 19 -51 20 0 32 23 24 45 -7 17 -22 19
-43 6z"/>
<path d="M4526 2932 c5 -25 -1 -35 -46 -75 -40 -36 -60 -47 -86 -47 -28 0 -45
-11 -101 -66 -37 -36 -80 -72 -94 -79 -33 -18 -42 -40 -24 -55 18 -15 52 -4
59 18 3 9 15 22 25 27 11 6 45 27 75 48 55 37 56 37 82 21 l26 -18 -22 -8
c-13 -5 -37 -21 -55 -36 -84 -70 -114 -93 -118 -90 -10 8 -38 -28 -34 -44 4
-13 -3 -23 -24 -33 l-28 -15 -28 56 c-50 100 -143 125 -169 44 -14 -41 -7 -70
15 -70 25 0 41 -20 41 -51 0 -15 5 -31 10 -34 6 -3 10 -19 10 -35 0 -35 -16
-41 -105 -41 -95 0 -103 8 -56 56 43 46 61 75 61 103 0 27 -21 33 -84 26 -44
-5 -54 -4 -60 11 -3 9 -3 21 0 27 4 6 0 14 -7 19 -10 6 -8 9 8 9 17 0 25 8 31
33 5 17 6 39 1 47 -4 8 -5 27 -2 42 7 35 -23 51 -43 23 -15 -20 -16 -19 -71
31 -27 25 -170 63 -222 59 -28 -2 -56 -7 -61 -10 -17 -10 -11 -51 11 -79 24
-31 25 -29 -21 -50 -19 -9 -50 -26 -68 -37 -29 -19 -37 -20 -58 -9 -13 8 -24
19 -24 26 0 6 -12 15 -27 19 -27 6 -43 21 -43 39 0 6 5 5 12 -2 7 -7 25 -12
40 -12 28 0 28 0 15 32 -11 26 -23 36 -63 49 -27 8 -56 18 -64 21 -106 38
-279 48 -387 23 -54 -13 -73 -22 -73 -34 0 -20 50 -52 114 -74 48 -17 75 -15
46 3 -12 7 -11 10 5 17 26 10 106 9 131 -2 10 -4 44 -9 74 -10 39 -2 71 -12
110 -34 30 -17 47 -31 37 -31 -16 0 -16 -2 -1 -25 13 -19 13 -24 3 -21 -37 11
-79 15 -79 6 0 -6 9 -10 20 -10 11 0 20 -5 20 -11 0 -5 -8 -9 -17 -8 -47 4
-67 -4 -103 -43 -22 -23 -40 -36 -40 -30 0 6 -13 19 -30 29 -16 9 -30 23 -30
30 0 8 -7 16 -15 19 -8 4 -15 12 -15 19 0 16 -47 48 -60 40 -6 -3 -10 0 -10 8
0 19 -45 27 -76 13 -13 -6 -24 -18 -24 -26 0 -24 -69 -82 -89 -75 -9 4 -33 9
-53 12 -43 6 -52 23 -49 96 1 35 -3 49 -14 53 -14 6 -14 8 1 18 12 9 15 21 10
44 -9 41 -17 46 -121 82 -80 29 -98 31 -179 28 -112 -5 -190 -36 -192 -78 -2
-32 10 -47 59 -72 l40 -20 -26 -24 c-14 -13 -28 -24 -30 -24 -3 0 -10 14 -17
30 -7 17 -19 30 -26 30 -8 0 -14 8 -14 19 0 10 -8 21 -17 25 -10 3 -26 11 -35
18 -20 14 -27 10 -33 -21 -2 -13 -7 -31 -10 -41 -4 -12 1 -23 15 -33 25 -17
16 -27 -25 -27 -17 0 -35 -4 -41 -10 -6 -6 -28 -1 -63 15 -95 44 -129 25 -64
-35 22 -21 40 -44 41 -51 0 -8 4 -24 7 -36 7 -20 4 -23 -24 -23 -34 0 -39 11
-16 30 8 7 15 18 15 26 0 23 -41 53 -69 50 -39 -5 -101 -38 -101 -53 0 -8 16
-30 35 -50 33 -34 36 -35 74 -25 31 7 43 7 51 -3 9 -10 6 -14 -12 -17 -13 -2
-22 -6 -20 -10 1 -5 2 -19 2 -32 0 -30 54 -86 82 -86 13 0 18 -5 15 -14 -4 -9
2 -17 14 -21 10 -4 19 -13 19 -20 0 -22 49 -43 126 -53 71 -10 89 -8 64 8 -12
8 -12 10 -1 10 8 0 19 -7 25 -16 17 -22 45 -8 38 19 -2 12 -9 28 -15 35 -7 9
-1 14 22 18 17 4 31 10 31 15 0 5 7 6 15 3 9 -4 16 3 21 20 3 14 12 26 19 26
7 0 16 6 18 13 4 9 8 8 16 -3 8 -12 14 -13 30 -3 11 7 27 10 36 7 8 -4 27 2
42 12 19 12 43 17 81 15 67 -3 89 14 98 75 7 47 24 61 24 19 0 -51 19 -71 83
-89 125 -34 197 -68 230 -108 17 -21 35 -38 40 -38 5 0 29 18 54 40 74 65 123
88 199 96 78 8 94 16 94 50 0 34 11 30 53 -21 29 -35 45 -45 67 -45 17 0 30
-5 30 -11 0 -7 10 -9 25 -5 16 4 25 2 25 -5 0 -8 13 -10 40 -6 27 3 52 0 73
-11 17 -9 46 -16 64 -16 27 -1 33 -5 33 -23 0 -13 5 -23 10 -23 6 0 10 -7 10
-15 0 -8 5 -15 10 -15 6 0 10 -7 10 -16 0 -9 13 -21 29 -27 32 -12 54 -59 45
-95 -4 -12 -1 -29 6 -37 10 -12 10 -15 -3 -15 -12 0 -15 -9 -12 -41 2 -22 9
-46 15 -54 7 -9 7 -21 0 -39 -20 -54 -13 -76 30 -94 40 -17 55 -34 23 -26 -23
5 -97 -37 -101 -58 -2 -8 4 -23 13 -32 17 -17 11 -40 -9 -33 -7 3 -18 -3 -24
-14 -7 -11 -18 -16 -27 -13 -26 11 -16 -11 14 -29 36 -21 47 -22 31 -2 -19 22
-8 25 13 3 9 -10 12 -18 6 -18 -20 0 3 -21 52 -45 38 -20 61 -25 102 -22 29 2
57 6 64 10 6 4 24 0 39 -8 34 -18 111 -12 158 12 28 15 29 16 11 29 -18 13
-17 14 8 14 18 0 27 -5 27 -16 0 -8 5 -12 10 -9 6 3 10 -1 10 -9 0 -20 58 -31
108 -20 20 4 39 7 42 6 3 0 4 17 2 38 -4 37 -21 62 -46 66 -6 1 -15 3 -21 4
-31 7 -56 -2 -65 -24 -12 -34 -22 -37 -47 -16 -23 18 -21 30 6 30 8 0 34 9 58
21 44 21 55 42 28 52 -8 4 -21 22 -29 42 -8 19 -20 35 -25 35 -6 0 -11 5 -11
10 0 17 26 11 54 -11 15 -12 35 -19 46 -16 11 3 21 -1 24 -9 3 -9 20 -14 45
-14 22 0 67 -7 100 -16 45 -11 66 -12 81 -4 48 26 5 64 -70 61 -59 -2 -57 -2
-115 3 -27 3 -63 5 -79 6 l-30 0 37 33 c43 38 47 51 12 45 -30 -6 -39 4 -27
29 13 25 32 108 32 138 0 14 -7 43 -16 65 -14 36 -20 40 -50 40 -35 0 -84 -18
-84 -31 0 -4 -9 -11 -20 -14 -14 -4 -30 2 -51 19 -17 14 -35 26 -41 26 -5 0
-23 9 -39 20 -28 21 -28 21 -9 40 11 11 26 20 34 20 23 0 63 38 69 67 4 16 21
39 41 53 26 18 36 33 36 53 0 17 5 27 15 27 27 0 225 141 225 161 0 16 2 17
28 3 27 -14 72 -19 72 -8 0 3 -4 14 -10 24 -8 15 -1 27 48 69 49 44 63 51 100
51 29 0 42 4 42 14 0 29 -165 136 -208 136 -18 0 -21 -4 -16 -28z m-2439 -238
c-3 -3 -12 -4 -19 -1 -8 3 -5 6 6 6 11 1 17 -2 13 -5z m18 -354 c3 -5 1 -10
-4 -10 -6 0 -11 5 -11 10 0 6 2 10 4 10 3 0 8 -4 11 -10z m15 -30 c0 -5 -2
-10 -4 -10 -3 0 -8 5 -11 10 -3 6 -1 10 4 10 6 0 11 -4 11 -10z"/>
<path d="M3910 2920 c-16 -16 -21 -31 -18 -51 3 -19 0 -29 -8 -29 -10 0 -20
-17 -29 -50 -1 -3 -5 -13 -10 -23 -12 -28 3 -33 25 -9 12 12 25 22 30 22 5 0
13 12 16 26 4 14 20 40 36 57 16 18 27 41 26 52 -4 28 -42 31 -68 5z"/>
<path d="M3210 2880 c0 -5 5 -10 10 -10 6 0 10 5 10 10 0 6 -4 10 -10 10 -5 0
-10 -4 -10 -10z"/>
<path d="M1348 2793 c-107 -110 -121 -133 -133 -220 -4 -26 -14 -64 -22 -83
-15 -32 -15 -41 0 -100 8 -36 18 -83 22 -105 3 -22 10 -63 16 -91 l10 -51 77
-11 c42 -7 78 -17 80 -22 2 -5 10 -6 19 -3 12 5 14 1 8 -18 -7 -23 -7 -23 12
-6 23 20 37 22 30 3 -7 -17 59 -38 93 -29 22 6 23 4 12 -9 -10 -13 -9 -16 8
-21 13 -3 18 -1 14 6 -4 7 3 2 14 -10 13 -13 20 -29 16 -40 -5 -17 -5 -17 9 0
8 9 21 17 29 17 8 0 18 4 24 10 6 6 10 3 11 -10 1 -14 -4 -20 -19 -20 -17 0
-18 -3 -8 -15 11 -13 14 -13 27 1 11 11 19 12 26 5 12 -12 51 -15 44 -3 -3 4
10 8 29 8 19 1 34 -3 34 -8 0 -6 11 -8 25 -6 14 3 25 1 25 -3 0 -5 7 -6 15 -3
23 9 18 -7 -12 -38 -15 -15 -36 -28 -47 -28 -12 0 -32 -9 -45 -19 l-23 -18 43
0 c24 0 54 -3 66 -6 27 -7 86 20 77 35 -4 6 0 14 7 19 9 6 4 7 -16 3 l-30 -7
23 25 c12 13 22 28 22 31 0 4 -10 2 -22 -4 -21 -11 -22 -11 -10 4 8 9 11 21 7
26 -4 7 2 8 17 2 34 -12 66 6 74 43 3 17 10 36 15 42 10 12 12 41 6 92 -3 29
-1 32 24 32 35 0 88 48 67 61 -7 5 -27 9 -45 9 -17 0 -65 7 -105 17 -40 9 -85
16 -99 16 -29 0 -89 -24 -89 -36 0 -4 -11 -5 -24 -1 -36 9 -86 -44 -86 -91 0
-50 -18 -43 -26 10 -7 47 -24 62 -24 21 0 -14 -4 -27 -9 -30 -5 -3 -7 -16 -3
-29 5 -20 4 -21 -14 -7 -10 8 -22 20 -26 26 -4 7 -22 11 -40 10 -24 -2 -33 -7
-32 -19 1 -9 -4 -17 -12 -17 -8 0 -14 10 -14 23 -1 21 -2 20 -16 -5 -8 -16
-21 -28 -29 -28 -8 0 -15 12 -17 28 -2 19 -8 27 -20 26 -14 -1 -18 6 -18 32 0
18 -4 35 -10 39 -5 3 -1 14 10 25 23 23 26 46 8 53 -7 3 -4 6 8 6 20 1 28 13
52 73 8 20 8 29 0 34 -16 10 -4 97 18 127 18 25 52 48 39 27 -7 -11 15 -13 39
-4 36 14 7 122 -50 186 -25 29 -41 37 -80 42 -45 6 -51 4 -76 -21z m342 -752
c-8 -5 -27 -11 -42 -15 -21 -5 -28 -3 -28 9 0 11 11 15 43 15 28 -1 37 -3 27
-9z m76 -27 c18 -14 18 -15 -4 -4 -12 6 -27 8 -32 5 -5 -3 -11 -1 -15 5 -10
16 29 12 51 -6z m70 -9 c-10 -8 -23 -12 -28 -9 -14 9 2 24 25 24 21 -1 21 -1
3 -15z m34 -5 c0 -5 -5 -10 -11 -10 -5 0 -7 5 -4 10 3 6 8 10 11 10 2 0 4 -4
4 -10z"/>
<path d="M4816 2781 c-4 -5 -3 -17 0 -25 9 -24 -23 -55 -90 -87 -46 -22 -63
-26 -78 -18 -24 13 -48 5 -48 -15 0 -8 23 -38 50 -66 36 -37 57 -50 73 -48 12
2 23 10 23 18 1 8 2 20 3 26 0 6 15 17 32 24 41 17 43 12 58 -113 7 -56 17
-109 22 -119 16 -30 56 -21 156 33 82 44 98 50 119 40 31 -14 53 -5 47 19 -3
11 -27 40 -54 65 -52 49 -86 56 -82 17 3 -23 -29 -47 -51 -39 -8 3 -18 43 -26
99 l-12 93 -53 53 c-50 50 -77 63 -89 43z"/>
<path d="M468 2746 c-20 -15 -38 -50 -38 -75 0 -24 35 -51 70 -52 17 -1 19 -3
8 -6 -21 -5 -24 -43 -6 -61 20 -20 5 -20 -64 1 -46 13 -69 26 -73 38 -15 45
-53 10 -76 -69 -15 -52 -2 -75 31 -54 17 10 32 9 83 -4 81 -21 85 -24 48 -40
-35 -15 -41 -43 -11 -51 39 -10 13 -28 -54 -37 -49 -7 -73 -6 -87 2 -39 24
-49 16 -49 -42 0 -63 19 -88 51 -68 10 7 30 12 44 12 20 0 25 -5 25 -25 0 -21
-5 -25 -28 -25 -15 0 -33 5 -39 11 -7 7 -19 9 -29 5 -13 -5 -16 -16 -12 -57 6
-62 19 -77 50 -61 13 7 57 13 98 15 59 1 75 -1 75 -12 0 -19 -132 -63 -167
-56 -36 8 -43 -9 -24 -60 24 -61 43 -75 64 -48 10 11 27 24 40 28 35 10 27
-17 -13 -43 -29 -18 -35 -28 -35 -57 0 -22 8 -43 20 -55 20 -20 50 -18 50 4 0
7 11 19 25 26 13 7 27 21 30 31 5 13 14 16 44 12 75 -10 89 38 42 152 -15 39
-28 88 -28 111 0 77 -19 99 -62 72 -24 -15 -51 -4 -51 22 0 23 38 28 57 9 7
-7 19 -9 27 -6 21 8 21 85 1 114 -14 20 -14 22 2 27 21 7 79 176 69 201 -5 13
-1 13 32 -1 20 -9 47 -16 60 -15 12 0 22 -3 22 -8 0 -5 22 -17 48 -25 27 -9
66 -25 88 -36 21 -11 44 -20 52 -20 8 0 25 -9 39 -20 43 -34 95 -12 108 47 5
25 2 34 -17 47 -28 20 -54 21 -62 1 -3 -8 -12 -12 -20 -9 -9 3 -12 12 -9 21 4
11 2 14 -5 9 -7 -4 -12 -14 -12 -22 0 -8 -4 -13 -9 -10 -5 3 -7 15 -4 26 3 12
0 20 -8 20 -7 0 -23 9 -35 21 -12 11 -46 30 -75 42 -30 13 -85 40 -124 62 -73
41 -152 59 -177 41z m62 -766 c0 -6 -10 -15 -22 -19 -28 -11 -50 5 -28 19 20
13 50 13 50 0z"/>
<path d="M4015 2680 c-3 -5 -1 -10 4 -10 6 0 11 5 11 10 0 6 -2 10 -4 10 -3 0
-8 -4 -11 -10z"/>
<path d="M1540 2520 c0 -5 5 -10 10 -10 6 0 10 5 10 10 0 6 -4 10 -10 10 -5 0
-10 -4 -10 -10z"/>
<path d="M4372 2513 c-19 -9 -36 -22 -39 -30 -3 -7 -12 -13 -20 -13 -19 0
-102 -52 -103 -63 0 -10 51 -1 93 15 15 6 27 14 27 19 0 5 7 9 15 9 8 0 33 7
55 16 32 13 40 21 38 38 -4 27 -25 30 -66 9z"/>
<path d="M2640 2425 c-7 -8 -23 -15 -36 -15 -29 0 -54 -25 -54 -56 0 -30 61
-64 117 -65 21 0 31 -3 23 -6 -28 -10 -50 -36 -50 -58 0 -24 -59 -79 -117
-109 -28 -14 -32 -14 -27 -1 8 20 -13 45 -38 45 -14 0 -18 -5 -14 -16 5 -13 2
-15 -16 -8 -13 4 -51 8 -84 8 -72 1 -104 -19 -104 -65 0 -33 21 -57 58 -65 54
-12 60 -15 58 -32 -1 -20 50 -30 67 -13 17 17 24 13 30 -16 7 -36 -29 -120
-54 -128 -21 -7 -24 -27 -9 -56 10 -17 8 -18 -16 -9 -33 13 -37 9 -25 -21 5
-13 10 -18 10 -11 1 7 6 10 12 7 6 -4 8 -13 5 -21 -3 -8 -1 -14 4 -14 5 0 11
8 13 18 4 13 5 12 6 -4 1 -29 -30 -40 -47 -17 -11 16 -14 16 -22 3 -8 -12 -10
-9 -10 13 0 28 -14 37 -23 15 -4 -10 -6 -10 -6 0 -1 7 9 16 21 21 21 8 21 8
-5 15 -68 17 -95 -53 -41 -101 45 -41 128 -24 139 28 8 34 16 36 40 9 13 -14
29 -20 51 -18 31 2 32 3 18 20 -15 16 -14 18 17 32 19 9 53 20 77 26 23 6 42
13 42 17 0 13 -43 73 -58 82 -11 7 -25 3 -44 -10 -15 -11 -44 -26 -64 -35 -30
-13 -38 -13 -45 -2 -12 19 -12 21 16 61 23 34 23 39 11 86 l-13 49 25 -9 c14
-5 38 -19 55 -31 27 -20 31 -20 42 -5 7 9 21 17 31 18 11 0 13 3 7 6 -19 7
-15 33 5 33 37 0 63 -13 60 -29 -2 -11 -12 -15 -28 -13 -14 2 -22 1 -18 -3 4
-4 3 -16 -3 -27 -9 -16 -7 -20 11 -25 16 -4 19 -10 14 -27 -4 -11 -14 -27 -23
-34 -13 -10 -11 -10 13 0 25 11 30 10 42 -7 13 -17 12 -21 -8 -37 -22 -17 -22
-17 -2 -12 12 3 25 1 28 -5 4 -6 15 -11 25 -11 10 0 30 -9 44 -21 23 -17 25
-23 14 -40 -6 -10 -20 -19 -29 -19 -12 0 -21 -13 -29 -42 -11 -42 -11 -43 -26
-20 -16 23 -43 30 -43 11 0 -7 -10 -5 -26 5 -15 11 -39 16 -62 14 l-37 -4 44
-9 c41 -7 43 -9 21 -17 -18 -7 -21 -11 -11 -17 7 -5 14 -26 16 -47 9 -101 24
-126 85 -139 73 -14 112 -7 147 27 18 18 33 39 33 47 0 14 -1 14 -10 1 -8 -12
-10 -11 -10 8 0 17 9 27 36 38 20 9 46 13 58 11 12 -3 41 -2 66 3 l45 7 -40 3
c-22 2 -55 4 -73 4 -18 1 -36 6 -40 11 -4 6 -18 16 -32 22 -14 6 -19 12 -12
12 9 1 11 11 7 35 -6 31 -4 35 26 50 37 18 65 21 74 6 3 -5 19 -10 35 -10 28
0 48 -24 29 -36 -7 -4 2 -19 21 -39 25 -26 30 -37 24 -59 -5 -23 -3 -26 22
-28 16 0 41 0 56 1 22 2 26 -1 21 -19 -3 -11 -9 -23 -14 -26 -5 -3 5 -17 23
-32 38 -32 100 -36 141 -9 22 14 27 25 27 56 0 36 -2 39 -42 50 -33 10 -46 10
-65 0 -12 -7 -23 -16 -23 -20 0 -9 28 -1 46 13 7 5 18 0 28 -11 17 -19 17 -19
-3 -14 -14 4 -21 1 -21 -10 0 -8 -9 -17 -20 -20 -12 -3 -18 -1 -14 5 5 7 -2 9
-20 4 -22 -5 -26 -3 -26 14 0 11 12 25 28 34 41 21 56 44 54 78 -2 23 6 39 37
69 40 40 65 51 54 23 -8 -20 17 -36 34 -22 7 6 22 8 32 5 11 -3 28 1 39 8 13
9 29 11 53 6 19 -4 43 -4 54 0 15 6 10 8 -20 9 -39 2 -40 2 -9 9 40 10 54 19
54 36 0 7 5 15 12 17 19 7 1 37 -27 48 -15 6 -37 10 -51 10 -13 0 -24 4 -24
10 0 5 -11 12 -25 16 -28 7 -34 23 -9 20 22 -1 30 22 10 30 -26 10 -64 -5 -71
-27 -10 -32 -25 -4 -25 48 0 31 7 49 25 69 14 15 25 31 25 37 0 5 12 2 26 -8
32 -21 90 -13 118 17 16 17 17 23 5 55 -12 30 -22 38 -58 49 -33 10 -50 10
-65 2 -12 -6 -22 -11 -23 -10 -11 8 -24 -1 -22 -15 1 -10 1 -26 0 -36 -1 -16
-3 -16 -23 3 -13 12 -35 20 -56 20 -35 0 -162 56 -162 71 0 5 11 9 25 9 24 0
29 9 28 48 -1 6 5 12 13 12 17 0 18 16 2 26 -7 5 -4 10 10 15 28 10 28 31 1
55 -18 16 -34 19 -112 16 -50 -2 -95 -6 -100 -9 -5 -3 -7 -16 -4 -29 3 -17 -1
-24 -16 -26 -24 -4 -31 -45 -9 -57 11 -6 7 -11 -16 -19 -17 -6 -32 -9 -34 -8
-1 2 -25 6 -53 9 l-50 6 44 -18 c38 -15 49 -16 80 -5 59 21 65 17 32 -25 -36
-45 -39 -61 -11 -61 23 0 24 -4 10 -30 -18 -34 -76 -15 -137 46 -50 49 -69 87
-40 82 6 -2 12 6 12 17 0 17 -8 20 -51 23 -51 3 -51 3 -40 27 6 14 17 25 24
25 13 0 16 28 4 46 -10 17 -80 44 -112 44 -15 0 -33 -7 -40 -15z m75 -5 c3 -6
-5 -10 -19 -10 -13 0 -33 -3 -43 -7 -16 -6 -16 -5 -4 10 15 19 56 23 66 7z
m64 -32 c12 -15 11 -18 -3 -18 -10 0 -16 8 -16 22 0 12 1 19 3 17 1 -2 9 -12
16 -21z m-168 -4 c-17 -12 -21 -22 -16 -41 5 -22 4 -23 -15 -13 -11 6 -20 17
-20 25 0 21 29 45 53 45 21 0 21 0 -2 -16z m70 2 c-9 -11 -8 -15 5 -20 25 -10
34 -7 28 9 -10 25 14 17 33 -11 16 -26 16 -27 -6 -45 -26 -21 -62 -24 -92 -8
-24 13 -16 29 11 22 11 -3 20 -1 20 5 0 13 -29 24 -43 15 -7 -3 -1 6 12 20 25
27 53 39 32 13z m482 -42 c-3 -9 1 -14 12 -14 9 0 13 -5 10 -10 -4 -6 -15 -8
-26 -5 -59 16 -64 17 -54 7 6 -5 19 -12 30 -15 19 -4 18 -5 -2 -6 -22 -1 -53
22 -53 41 0 6 10 8 25 4 14 -4 25 -3 25 2 0 4 9 8 19 9 14 1 18 -3 14 -13z
m-428 -64 c-3 -5 -10 -10 -16 -10 -5 0 -9 5 -9 10 0 6 7 10 16 10 8 0 12 -4 9
-10z m42 -36 c-3 -3 -12 -4 -19 -1 -8 3 -5 6 6 6 11 1 17 -2 13 -5z m496 -90
c81 -24 80 -39 -4 -66 -39 -13 -70 -27 -69 -32 4 -21 -25 -23 -59 -4 -53 29
-64 43 -56 67 6 18 12 21 36 16 l29 -7 0 53 0 53 33 -32 c21 -20 55 -39 90
-48z m-555 23 c11 -23 22 -58 24 -77 2 -28 -1 -37 -21 -46 -13 -7 -27 -18 -31
-24 -5 -8 -19 -10 -39 -5 -23 5 -30 11 -28 28 2 19 -2 21 -41 18 -23 -1 -56 0
-73 4 -30 7 -30 7 28 34 32 15 72 44 89 63 28 32 46 45 65 47 4 1 16 -18 27
-42z m362 -33 c0 -16 -23 -44 -35 -44 -15 0 -21 31 -8 43 8 8 43 9 43 1z m295
-14 c3 -5 1 -10 -4 -10 -6 0 -11 5 -11 10 0 6 2 10 4 10 3 0 8 -4 11 -10z
m-406 -42 c5 -13 18 -32 30 -42 28 -25 27 -40 -4 -54 -33 -15 -51 -15 -100 2
-22 7 -64 12 -92 11 -58 -4 -66 6 -28 31 14 9 22 20 20 25 -12 18 43 36 153
48 7 0 16 -9 21 -21z m431 2 c0 -5 -2 -10 -4 -10 -3 0 -8 5 -11 10 -3 6 -1 10
4 10 6 0 11 -4 11 -10z m20 -30 c0 -5 -5 -10 -11 -10 -5 0 -7 5 -4 10 3 6 8
10 11 10 2 0 4 -4 4 -10z m-958 -22 c-7 -7 -12 -8 -12 -2 0 6 3 14 7 17 3 4 9
5 12 2 2 -3 -1 -11 -7 -17z m595 7 c0 -6 -6 -12 -12 -12 -6 0 -12 6 -12 12 0
6 6 12 12 12 6 0 12 -6 12 -12z m333 -13 c0 -10 -7 -27 -15 -38 -21 -27 -19
-41 15 -90 26 -40 27 -44 10 -44 -30 0 -71 19 -89 42 l-17 21 -21 -27 c-12
-14 -27 -26 -35 -26 -19 0 -44 53 -29 58 6 2 11 15 11 29 0 17 -4 23 -14 20
-14 -6 -41 39 -28 47 4 2 24 4 45 3 26 -1 33 -4 22 -9 -8 -5 -15 -15 -15 -23
0 -27 36 -20 90 17 63 43 70 45 70 20z m-232 -49 c21 -21 31 -90 11 -77 -9 5
-10 2 -6 -10 5 -11 3 -15 -5 -10 -8 5 -9 2 -5 -9 11 -28 -12 -29 -45 -2 -17
14 -37 24 -44 21 -8 -3 -14 -1 -14 4 0 6 11 10 24 10 16 0 26 7 29 21 5 18 2
20 -21 15 l-27 -6 26 15 c15 8 29 21 33 30 7 20 23 19 44 -2z m-420 -47 c-7
-8 -15 -12 -17 -11 -5 6 10 25 20 25 5 0 4 -6 -3 -14z m289 -31 c0 -8 -4 -12
-9 -9 -5 3 -6 10 -3 15 9 13 12 11 12 -6z m453 -20 c25 -8 17 -25 -10 -20 -31
6 -40 14 -40 36 0 18 2 19 15 5 8 -8 24 -18 35 -21z m-741 -19 c0 -6 -3 -5 -6
2 -2 6 -8 10 -12 8 -4 -3 -8 5 -8 17 -2 21 -1 22 13 3 8 -11 14 -25 13 -30z
m485 -2 c27 -10 19 -34 -12 -34 -34 0 -43 7 -35 26 6 15 22 18 47 8z m251 -24
c-3 -5 -2 -10 3 -10 5 0 8 -10 8 -21 -1 -12 6 -24 14 -27 12 -4 13 -2 4 9 -17
21 -13 47 8 52 22 6 23 -1 1 -25 -9 -10 -11 -18 -5 -18 6 0 12 4 14 9 2 5 14
11 28 13 18 2 25 -2 27 -17 1 -11 0 -15 -3 -9 -3 7 -14 10 -24 7 -23 -6 -26
-19 -7 -26 6 -3 -2 -6 -19 -6 -17 -1 -36 5 -41 12 -16 20 -25 67 -13 67 6 0 8
-4 5 -10z m120 0 c3 -6 -1 -7 -9 -4 -18 7 -21 14 -7 14 6 0 13 -4 16 -10z
m-347 -37 c8 -13 19 -15 60 -10 27 3 59 3 71 0 20 -5 17 -8 -19 -24 -23 -11
-48 -19 -55 -19 -7 0 -21 -20 -31 -45 -9 -25 -23 -45 -30 -45 -8 0 -14 -4 -14
-10 0 -22 -17 -8 -45 36 -23 37 -33 44 -51 40 -24 -6 -40 17 -27 37 4 7 8 16
8 21 0 12 62 34 97 35 15 1 31 -6 36 -16z m212 -13 c0 -5 -7 -10 -16 -10 -8 0
-12 5 -9 10 3 6 10 10 16 10 5 0 9 -4 9 -10z m10 -30 c0 -16 -27 -23 -57 -15
-21 5 -24 8 -12 16 19 12 69 11 69 -1z m-393 -15 c27 -19 21 -55 -8 -48 -28 8
-53 45 -36 55 17 11 19 10 44 -7z m-207 -9 c0 -16 -45 -48 -54 -39 -3 4 -6 17
-6 30 0 19 5 23 30 23 19 0 30 -5 30 -14z m270 -46 c-21 -13 -30 -12 -27 3 3
18 21 27 32 16 6 -6 5 -13 -5 -19z m-59 -23 c-5 -5 -18 -7 -28 -3 -14 6 -15 9
-4 16 19 11 46 1 32 -13z"/>
<path d="M2730 2342 c0 -7 -10 -12 -22 -12 -19 0 -20 -2 -8 -10 16 -10 50 14
37 26 -4 4 -7 2 -7 -4z"/>
<path d="M3148 1963 c7 -3 16 -2 19 1 4 3 -2 6 -13 5 -11 0 -14 -3 -6 -6z"/>
<path d="M3150 1941 c0 -6 4 -13 10 -16 6 -3 7 1 4 9 -7 18 -14 21 -14 7z"/>
<path d="M579 2361 c-23 -19 -23 -21 -9 -48 17 -30 74 -48 173 -55 48 -3 52
-1 61 24 13 37 -12 64 -77 83 -69 21 -120 19 -148 -4z"/>
<path d="M5111 2362 c-53 -27 -75 -64 -75 -125 2 -108 104 -237 187 -237 14 0
30 -7 37 -15 16 -19 46 -19 54 0 12 32 -59 169 -94 180 -28 9 -43 -4 -36 -31
7 -26 -11 -33 -32 -12 -36 36 10 112 76 124 69 13 123 -47 102 -112 -16 -47
-6 -82 26 -90 56 -14 106 44 72 84 -9 9 -18 31 -22 47 -19 79 -103 167 -184
191 -58 18 -70 18 -111 -4z"/>
<path d="M842 2301 c-5 -3 -12 -16 -16 -28 -9 -28 28 -49 101 -59 49 -6 51 -5
60 23 10 27 8 30 -21 43 -37 17 -112 29 -124 21z"/>
<path d="M4618 2283 c-20 -5 -22 -12 -9 -46 9 -23 12 -24 56 -16 25 5 51 11
56 14 13 8 11 32 -2 41 -14 8 -77 13 -101 7z"/>
<path d="M4520 2268 c-25 -5 -63 -10 -85 -11 -22 -2 -48 -8 -58 -13 -16 -9
-16 -12 -4 -22 14 -12 63 -15 122 -8 17 2 44 4 61 5 37 1 50 23 26 43 -13 11
-28 12 -62 6z"/>
<path d="M1010 2248 c0 -21 21 -38 46 -38 48 0 35 32 -19 45 -20 5 -27 3 -27
-7z"/>
<path d="M4673 2160 c-11 -5 -64 -12 -117 -16 -76 -5 -99 -10 -106 -24 -20
-37 46 -56 82 -23 12 11 18 12 18 4 0 -10 28 -11 123 -6 133 7 158 16 138 54
-10 17 -21 21 -64 20 -29 0 -62 -4 -74 -9z"/>
<path d="M1260 2110 c8 -5 24 -10 34 -10 26 0 18 6 -19 14 -22 5 -26 4 -15 -4z"/>
<path d="M1360 2090 c-11 -7 -7 -10 18 -10 20 0 31 4 27 10 -8 13 -26 13 -45
0z"/>
<path d="M4810 2070 c-14 -4 -34 -6 -45 -4 -11 3 -56 -5 -100 -16 -44 -12
-104 -27 -132 -35 -31 -7 -55 -9 -59 -4 -11 18 -45 9 -56 -16 -20 -45 -4 -49
174 -46 157 2 163 3 185 27 14 15 33 24 52 24 34 0 71 33 71 62 0 14 -7 18
-32 17 -18 -1 -44 -4 -58 -9z"/>
<path d="M1595 1961 c-4 -7 5 -23 20 -37 34 -32 28 -47 -21 -55 -27 -4 -32 -7
-14 -8 14 -2 35 -4 48 -7 13 -2 21 0 17 5 -3 5 -1 12 4 15 13 9 41 -4 41 -18
0 -8 13 -10 38 -8 l37 5 -35 12 c-26 9 -34 18 -33 33 3 23 -27 39 -39 20 -6
-10 -8 -8 -8 5 0 10 -8 21 -17 24 -10 4 -21 11 -24 16 -4 5 -10 4 -14 -2z"/>
<path d="M1785 1950 c3 -5 13 -10 21 -10 8 0 12 5 9 10 -3 6 -13 10 -21 10 -8
0 -12 -4 -9 -10z"/>
<path d="M1708 1943 c7 -3 16 -2 19 1 4 3 -2 6 -13 5 -11 0 -14 -3 -6 -6z"/>
<path d="M1836 1933 c-4 -4 -23 -6 -44 -5 -35 3 -36 2 -17 -12 26 -20 65 -21
65 -1 0 9 6 12 15 9 8 -4 15 -1 15 5 0 12 -23 15 -34 4z"/>
<path d="M1976 1929 c3 -5 16 -9 30 -9 14 0 23 4 20 9 -3 5 -17 9 -31 9 -13 0
-22 -4 -19 -9z"/>
<path d="M1355 1890 c3 -5 8 -10 11 -10 2 0 4 5 4 10 0 6 -5 10 -11 10 -5 0
-7 -4 -4 -10z"/>
<path d="M1530 1886 c0 -9 5 -16 10 -16 6 0 10 4 10 9 0 6 -4 13 -10 16 -5 3
-10 -1 -10 -9z"/>
<path d="M1985 1890 c-3 -6 1 -7 9 -4 18 7 21 14 7 14 -6 0 -13 -4 -16 -10z"/>
<path d="M1303 1843 c6 -42 13 -54 64 -100 46 -42 60 -50 75 -42 19 10 38 5
38 -11 0 -5 -6 -7 -14 -4 -8 3 -17 1 -20 -4 -3 -5 10 -13 29 -16 19 -4 46 -13
61 -21 15 -8 31 -12 35 -9 5 3 27 -4 51 -16 48 -23 62 -25 52 -7 -6 10 -4 10
7 0 19 -19 32 -16 26 6 -4 16 0 19 22 16 14 -1 30 0 34 2 12 7 -13 33 -31 33
-8 0 -21 8 -28 18 -13 16 -14 16 -8 0 3 -10 2 -18 -3 -18 -13 0 -58 39 -59 51
-1 5 -2 13 -3 18 0 5 -18 15 -38 21 -21 7 -42 16 -48 21 -19 18 -95 -1 -95
-24 0 -5 11 -2 25 7 38 25 56 21 42 -8 -19 -40 -95 -51 -104 -16 -5 17 -8 18
-20 8 -13 -10 -20 -7 -44 22 -27 32 -48 94 -36 106 3 4 16 -3 28 -15 15 -14
26 -18 33 -11 5 5 21 10 36 10 22 1 23 2 8 11 -12 7 -24 6 -37 -1 -15 -7 -23
-6 -35 5 -8 8 -22 15 -32 15 -14 0 -16 -7 -11 -47z m272 -93 c30 -12 25 -31
-6 -23 -12 3 -24 1 -28 -4 -9 -15 -51 -26 -51 -14 0 6 8 11 19 11 21 0 45 23
34 33 -9 10 2 9 32 -3z m35 -55 c10 -12 10 -15 -4 -15 -9 0 -16 -4 -16 -10 0
-14 -47 -13 -56 2 -8 13 22 38 47 38 9 0 22 -7 29 -15z m51 -37 c11 -11 17
-23 15 -26 -7 -6 -41 21 -43 36 -4 18 7 15 28 -10z"/>
<path d="M1195 1864 c8 -9 22 -13 31 -10 22 8 7 26 -22 26 -23 0 -24 -1 -9
-16z"/>
<path d="M1116 1861 c-17 -6 -17 -8 -3 -14 8 -3 21 1 27 9 13 15 6 17 -24 5z"/>
<path d="M978 1853 c-31 -8 -20 -26 12 -19 17 3 30 1 30 -4 0 -6 -5 -10 -12
-10 -6 0 -9 -3 -5 -6 3 -4 13 -4 22 0 13 4 14 10 5 26 -11 20 -19 22 -52 13z"/>
<path d="M1053 1853 c9 -2 23 -2 30 0 6 3 -1 5 -18 5 -16 0 -22 -2 -12 -5z"/>
<path d="M1520 1851 c0 -6 -6 -11 -14 -11 -11 0 -26 -20 -26 -34 0 -1 9 -2 21
-3 12 -1 19 3 16 10 -2 7 3 17 11 23 11 8 12 13 4 18 -7 4 -12 2 -12 -3z"/>
<path d="M1660 1850 c0 -5 5 -10 10 -10 6 0 10 5 10 10 0 6 -4 10 -10 10 -5 0
-10 -4 -10 -10z"/>
<path d="M2045 1850 c-3 -5 -1 -11 5 -15 20 -13 9 -33 -20 -37 -17 -3 -33 -2
-35 2 -6 10 -48 5 -52 -7 -5 -13 25 -25 40 -16 7 4 6 -1 -2 -11 -8 -9 -17 -13
-20 -8 -11 15 -39 21 -68 13 l-28 -8 35 -21 c39 -24 33 -28 -17 -10 -24 9 -33
18 -33 34 0 12 7 24 15 28 8 3 15 13 15 23 0 16 -2 15 -20 -3 -32 -31 -33 -62
-4 -80 29 -20 25 -31 -5 -14 -28 14 -28 -4 -1 -27 26 -23 25 -43 -2 -44 l-23
-1 22 -6 c17 -5 20 -11 13 -22 -18 -27 -11 -60 13 -69 39 -15 124 -20 164 -9
21 6 58 12 83 14 25 1 48 3 51 3 10 1 79 63 79 71 0 8 -39 23 -53 21 -5 -1 -7
9 -5 21 2 18 -5 27 -32 41 -20 9 -34 24 -32 32 2 10 -10 7 -43 -11 -47 -27
-62 -24 -78 19 -5 14 -3 16 12 8 10 -6 21 -7 25 -4 3 3 6 1 6 -5 0 -7 4 -12 9
-12 9 0 21 30 25 64 3 21 -30 60 -39 46z m-10 -70 c3 -5 2 -10 -4 -10 -5 0
-13 5 -16 10 -3 6 -2 10 4 10 5 0 13 -4 16 -10z m-27 -69 c-2 -9 -10 -17 -18
-17 -8 -1 -19 -3 -25 -4 -5 -1 -18 -2 -27 -1 -10 1 -18 -3 -18 -8 0 -6 -7 -11
-15 -11 -21 0 -19 16 3 25 9 3 18 6 20 6 1 -1 11 8 21 18 23 23 64 17 59 -8z"/>
<path d="M528 1842 c-16 -2 -44 -18 -63 -36 -29 -28 -35 -40 -35 -74 0 -56 16
-86 60 -117 73 -51 160 -39 200 27 60 98 -36 215 -162 200z m100 -95 c5 -23
-60 -87 -87 -87 -47 0 -33 57 22 91 37 22 60 21 65 -4z"/>
<path d="M900 1838 c0 -7 -12 -23 -27 -37 l-28 -24 25 6 c14 4 35 7 48 7 12 0
22 4 22 10 0 5 -7 7 -17 3 -13 -5 -15 -2 -11 15 4 12 2 25 -3 28 -5 3 -9 -1
-9 -8z"/>
<path d="M856 1831 c-11 -4 -15 -10 -9 -14 5 -3 19 0 29 8 20 15 11 18 -20 6z"/>
<path d="M1058 1823 c7 -3 16 -2 19 1 4 3 -2 6 -13 5 -11 0 -14 -3 -6 -6z"/>
<path d="M780 1801 c0 -6 4 -13 10 -16 6 -3 7 1 4 9 -7 18 -14 21 -14 7z"/>
<path d="M2125 1780 c3 -5 11 -10 16 -10 6 0 7 5 4 10 -3 6 -11 10 -16 10 -6
0 -7 -4 -4 -10z"/>
<path d="M1211 1734 c0 -11 3 -14 6 -6 3 7 2 16 -1 19 -3 4 -6 -2 -5 -13z"/>
<path d="M1800 1735 c0 -8 5 -15 10 -15 6 0 10 7 10 15 0 8 -4 15 -10 15 -5 0
-10 -7 -10 -15z"/>
<path d="M1090 1730 c0 -6 7 -10 15 -10 8 0 15 2 15 4 0 2 -7 6 -15 10 -8 3
-15 1 -15 -4z"/>
<path d="M850 1718 c-25 -6 -39 -13 -32 -15 6 -3 12 -9 12 -15 0 -6 -11 -3
-25 6 -31 21 -31 17 0 -20 l24 -28 38 34 c21 19 42 38 48 42 12 10 -8 9 -65
-4z m17 -14 c-3 -3 -12 -4 -19 -1 -8 3 -5 6 6 6 11 1 17 -2 13 -5z"/>
<path d="M955 1722 c-11 -8 -16 -42 -6 -42 3 0 11 11 18 25 11 25 7 31 -12 17z"/>
<path d="M3627 1712 c-16 -29 -15 -59 3 -72 24 -17 26 -32 5 -24 -9 4 -15 0
-15 -10 0 -11 -9 -16 -28 -16 -26 0 -72 -31 -72 -49 0 -4 -16 -15 -36 -25 -43
-20 -104 -75 -104 -93 0 -7 -3 -14 -7 -14 -5 -1 -17 -3 -28 -4 -43 -6 -75 -24
-69 -40 5 -11 0 -15 -18 -15 -31 0 -41 -10 -27 -27 9 -10 6 -13 -14 -13 -15 0
-32 -9 -40 -21 -13 -18 -18 -19 -37 -9 -17 9 -32 8 -72 -5 -27 -9 -58 -13 -69
-10 -11 4 -26 1 -34 -5 -8 -7 -21 -10 -30 -7 -8 4 -17 2 -20 -3 -4 -6 -17 -10
-29 -10 -13 0 -37 -14 -55 -32 -35 -36 -38 -33 -15 16 9 19 14 41 11 49 -3 9
-30 23 -60 33 -34 10 -57 24 -63 38 -5 11 -18 22 -29 24 -11 2 -28 11 -38 20
-9 8 -20 12 -23 9 -4 -3 -13 0 -21 8 -16 16 -33 18 -133 16 -50 -1 -61 1 -47
9 9 6 17 19 17 29 0 18 -53 65 -103 90 -17 9 -25 20 -23 30 3 9 -1 25 -9 35
-14 19 -16 18 -51 -22 -19 -23 -42 -42 -50 -42 -13 0 -19 -28 -16 -75 1 -11
16 -32 32 -46 33 -28 30 -47 -4 -24 -23 17 -36 19 -36 6 0 -5 10 -11 22 -14
12 -4 20 -9 17 -11 -3 -3 -19 -2 -37 3 -17 5 -61 7 -98 4 -36 -3 -76 -1 -87 5
-12 5 -36 15 -53 22 -40 15 -106 80 -81 80 9 0 17 4 17 9 0 9 -106 46 -127 44
-7 0 -24 -1 -37 -2 -35 -2 -40 -28 -12 -75 26 -45 60 -77 103 -100 15 -8 42
-26 58 -40 17 -15 41 -29 55 -32 21 -4 87 -27 175 -59 33 -13 65 -14 65 -4 0
6 4 7 10 4 5 -3 19 0 31 8 l20 15 -22 16 c-15 10 -25 12 -29 6 -6 -9 -60 31
-60 44 0 6 60 28 85 31 11 1 27 -2 35 -7 11 -6 9 -7 -7 -3 -14 4 -23 2 -23 -4
0 -6 5 -11 11 -11 6 0 9 -7 5 -15 -3 -9 3 -19 15 -25 15 -9 21 -7 25 5 3 8 15
15 26 15 16 0 18 3 9 13 -8 11 -5 13 19 9 29 -4 30 -6 30 -57 0 -29 3 -60 6
-69 5 -13 -2 -16 -44 -16 -38 0 -57 -6 -77 -23 l-26 -22 33 -36 c35 -37 80
-69 98 -69 6 0 30 -9 53 -19 29 -13 77 -21 152 -26 107 -6 111 -6 140 19 30
24 30 25 10 41 -20 16 -19 16 5 9 32 -8 30 -6 24 -31 -3 -12 -19 -27 -35 -34
-32 -13 -99 -85 -99 -106 0 -43 92 24 113 82 6 17 92 75 112 75 2 0 22 -16 45
-35 23 -19 48 -35 55 -35 24 0 75 72 75 105 0 17 6 39 13 49 12 16 15 16 59
-4 25 -11 48 -26 51 -33 3 -9 9 -9 25 0 17 10 21 9 25 -6 6 -24 -25 -59 -65
-73 -18 -6 -44 -19 -57 -30 -26 -20 -61 -24 -77 -8 -13 13 -65 -20 -84 -54
-21 -40 -4 -60 54 -64 55 -4 172 29 210 59 31 24 36 24 36 -2 0 -31 22 -18 43
24 10 20 23 37 28 37 5 0 9 8 9 18 0 16 7 18 48 15 26 -2 57 -9 68 -14 12 -6
44 -9 72 -8 l51 4 -2 -63 c-1 -57 1 -66 23 -83 17 -13 34 -18 54 -14 51 9 133
53 171 92 20 21 49 52 65 68 16 17 32 44 35 60 4 17 10 39 15 50 5 11 18 41
29 67 15 35 24 46 35 42 9 -3 27 -4 39 0 29 7 82 55 72 64 -4 4 -10 1 -12 -5
-3 -7 -17 -13 -31 -13 -25 1 -25 2 -9 14 36 27 6 53 -60 51 -24 0 -43 3 -43 7
0 5 7 8 15 8 29 0 14 19 -17 22 l-33 3 40 23 c22 13 45 34 52 48 12 26 8 54
-8 54 -5 0 -9 9 -9 20 0 11 -4 20 -10 20 -5 0 -9 3 -9 8 5 28 -9 42 -68 71
-38 19 -82 44 -100 57 -37 28 -81 46 -86 36z m-1910 -204 c-3 -8 -6 -5 -6 6
-1 11 2 17 5 13 3 -3 4 -12 1 -19z m1047 -373 c-4 -8 -11 -15 -16 -15 -6 0 -5
6 2 15 7 8 14 15 16 15 2 0 1 -7 -2 -15z m1016 -95 c0 -5 -4 -10 -10 -10 -5 0
-10 5 -10 10 0 6 5 10 10 10 6 0 10 -4 10 -10z"/>
<path d="M1788 1691 c-35 -20 -35 -26 1 -44 20 -10 28 -11 25 -3 -3 7 8 17 23
24 26 10 25 11 -17 7 -44 -5 -44 -4 -16 9 16 7 25 15 20 18 -5 3 -21 -2 -36
-11z"/>
<path d="M754 1671 c7 -10 4 -12 -13 -6 -16 5 -23 1 -30 -18 -5 -13 -32 -38
-59 -56 -55 -35 -62 -46 -62 -95 0 -66 102 -148 164 -132 13 3 47 22 75 41 30
21 61 35 74 33 34 -5 33 28 -2 63 -34 34 -53 34 -61 1 -5 -24 -85 -82 -112
-82 -22 0 -48 27 -48 51 0 25 75 79 112 79 39 0 38 34 -3 76 -31 32 -31 33 -8
28 13 -2 17 -1 9 2 -8 4 -21 12 -29 18 -12 9 -13 8 -7 -3z"/>
<path d="M1330 1634 c0 -8 5 -12 10 -9 6 3 10 10 10 16 0 5 -4 9 -10 9 -5 0
-10 -7 -10 -16z"/>
<path d="M4590 1639 c-56 -7 -167 -42 -183 -58 -12 -12 13 -50 30 -44 10 4 9
-4 -5 -28 -21 -39 -74 -78 -115 -86 -16 -3 -31 -12 -34 -19 -3 -8 -14 -14 -24
-14 -18 0 -23 -15 -22 -57 1 -7 -5 -13 -12 -13 -8 0 -23 -12 -34 -27 -12 -14
-24 -23 -27 -20 -4 3 -26 -7 -50 -24 -33 -23 -44 -26 -44 -14 0 8 -7 15 -16
15 -21 0 -74 -38 -74 -54 0 -13 66 -46 93 -46 9 0 27 -5 40 -11 30 -14 104 6
210 56 58 27 131 53 167 59 16 3 70 42 70 51 0 5 25 27 56 47 59 39 124 115
124 145 0 11 4 23 9 29 9 8 15 43 12 72 -2 28 -96 50 -171 41z"/>
<path d="M1140 1625 c0 -14 -14 -19 -70 -28 -20 -3 -18 -5 8 -6 44 -1 32 -17
-19 -26 -22 -4 -38 -9 -35 -12 2 -3 24 -2 47 2 28 5 43 13 46 25 3 10 13 20
24 23 19 5 27 37 9 37 -5 0 -10 -7 -10 -15z"/>
<path d="M1233 1629 c25 -14 21 -27 -10 -32 -17 -3 -12 -4 12 -3 33 1 40 5 40
21 0 15 -8 20 -30 22 -24 2 -27 0 -12 -8z"/>
<path d="M4873 1593 c-13 -2 -23 -8 -23 -13 0 -12 41 -40 58 -40 7 0 28 -10
46 -23 25 -16 47 -22 80 -21 25 1 46 -2 46 -7 0 -5 12 -9 26 -9 14 0 41 -7 59
-16 18 -8 48 -14 67 -12 28 3 33 7 36 32 2 16 -1 33 -7 39 -12 12 -178 37
-186 29 -11 -11 -55 -10 -55 1 0 25 -96 51 -147 40z"/>
<path d="M1135 1580 c-3 -5 1 -10 9 -10 9 0 16 5 16 10 0 6 -4 10 -9 10 -6 0
-13 -4 -16 -10z"/>
<path d="M1491 1571 c-10 -6 -10 -10 -1 -16 13 -8 24 -1 19 14 -3 6 -10 7 -18
2z"/>
<path d="M1520 1570 c0 -5 5 -10 10 -10 6 0 10 5 10 10 0 6 -4 10 -10 10 -5 0
-10 -4 -10 -10z"/>
<path d="M1387 1547 c-30 -12 -31 -31 -1 -34 12 -2 14 0 5 4 -10 4 -4 11 20
24 37 20 21 24 -24 6z"/>
<path d="M988 1543 c7 -3 16 -2 19 1 4 3 -2 6 -13 5 -11 0 -14 -3 -6 -6z"/>
<path d="M1320 1520 c0 -5 5 -10 11 -10 5 0 7 5 4 10 -3 6 -8 10 -11 10 -2 0
-4 -4 -4 -10z"/>
<path d="M1530 1495 c-7 -8 -26 -15 -44 -14 -40 0 -96 -11 -96 -20 0 -4 6 -16
14 -26 15 -20 18 -20 88 16 10 5 28 9 40 9 13 1 37 12 53 25 l30 25 -36 0
c-20 0 -42 -7 -49 -15z m-100 -45 c0 -5 -4 -10 -10 -10 -5 0 -10 5 -10 10 0 6
5 10 10 10 6 0 10 -4 10 -10z"/>
<path d="M5311 1481 c-30 -41 -26 -56 17 -69 108 -34 176 -40 199 -16 13 13
14 19 3 40 -8 13 -25 27 -39 30 -14 3 -38 12 -52 19 -14 8 -44 17 -67 20 -36
4 -43 2 -61 -24z"/>
<path d="M1289 1474 c-12 -15 -11 -16 11 -9 35 10 49 25 23 25 -11 0 -27 -7
-34 -16z"/>
<path d="M1233 1473 c9 -2 23 -2 30 0 6 3 -1 5 -18 5 -16 0 -22 -2 -12 -5z"/>
<path d="M1318 1442 c-10 -2 -18 -8 -18 -13 0 -5 -9 -9 -20 -9 -25 0 -27 -35
-3 -44 17 -7 113 13 113 23 -2 25 -43 50 -72 43z m47 -22 c3 -5 1 -10 -4 -10
-6 0 -11 5 -11 10 0 6 2 10 4 10 3 0 8 -4 11 -10z"/>
<path d="M849 1397 c-63 -42 -74 -104 -29 -167 33 -47 71 -62 148 -58 55 3 67
7 70 21 5 25 -63 87 -95 87 -22 0 -25 -4 -20 -25 3 -20 1 -25 -12 -23 -28 6
-26 61 5 91 46 46 98 27 106 -37 4 -41 31 -55 57 -32 31 28 26 54 -20 98 -72
70 -148 87 -210 45z"/>
<path d="M3907 1396 l-39 -12 25 -11 c20 -10 26 -9 31 3 3 8 12 14 21 14 8 0
15 5 15 10 0 12 -3 12 -53 -4z"/>
<path d="M4879 1378 c-9 -7 -19 -25 -22 -39 -6 -24 -2 -29 30 -44 35 -17 42
-17 95 -3 l58 16 0 -24 c0 -17 6 -24 18 -24 10 0 38 -6 63 -14 24 -8 56 -17
72 -20 24 -6 26 -9 17 -26 -14 -27 -5 -40 28 -40 30 0 59 -15 46 -23 -5 -3
-34 -11 -64 -19 -58 -14 -142 -6 -205 21 -16 7 -55 15 -85 18 -30 3 -60 10
-66 14 -7 6 -16 3 -24 -6 -7 -8 -17 -15 -22 -15 -6 0 -5 7 2 15 11 13 9 15
-11 13 -20 -3 -23 1 -21 20 3 18 -2 22 -25 23 -58 3 -77 -1 -100 -22 -28 -28
-29 -43 -2 -70 16 -16 29 -20 50 -15 16 3 29 2 29 -2 0 -8 80 -34 116 -38 12
-1 36 -10 52 -18 17 -9 42 -16 57 -16 14 0 25 -4 25 -9 0 -5 16 -12 35 -15 41
-8 46 -21 11 -30 -13 -3 -38 -22 -55 -41 -64 -73 -28 -179 66 -192 66 -9 109
4 147 43 38 39 52 88 36 128 -8 23 -7 26 11 26 12 0 23 -8 26 -20 8 -31 48
-25 73 10 24 34 21 60 -8 60 -31 0 -17 47 17 55 89 21 101 26 101 44 0 10 -18
27 -42 42 l-43 24 29 3 c16 2 33 -1 39 -7 20 -20 76 -13 102 14 42 41 34 51
-75 90 -51 18 -97 26 -144 27 -42 0 -75 6 -82 13 -7 7 -49 18 -93 24 -116 17
-122 19 -142 37 -24 21 -99 29 -120 12z m246 -487 c36 -20 40 -55 8 -59 -27
-4 -102 33 -110 54 -14 37 43 40 102 5z"/>
<path d="M1588 1361 c-9 -10 -36 -22 -60 -26 -23 -4 -52 -12 -62 -17 -11 -6
-36 -12 -56 -13 -19 -2 -52 -13 -72 -25 -33 -19 -36 -24 -25 -41 14 -23 50
-36 55 -20 2 6 12 11 22 11 19 0 71 20 80 30 3 3 26 14 53 24 28 11 46 23 45
31 -4 17 2 18 48 9 47 -9 63 7 35 35 -26 26 -42 27 -63 2z"/>
<path d="M1109 1263 c-1 -5 -1 -15 0 -23 2 -19 -87 -107 -113 -112 -34 -6 -29
-26 15 -57 55 -40 85 -41 92 -2 7 35 28 44 56 25 26 -19 19 -32 -25 -50 -40
-17 -42 -24 -11 -51 52 -48 107 -58 107 -20 0 27 87 117 113 117 29 0 19 37
-16 64 -43 33 -80 38 -85 11 -4 -22 -21 -45 -31 -45 -3 0 -15 7 -25 15 -16 12
-17 17 -6 30 7 8 21 15 31 15 45 0 25 46 -33 76 -29 15 -67 19 -69 7z"/>
<path d="M1757 1246 c6 -27 59 -44 77 -25 14 14 -28 49 -59 49 -18 0 -21 -4
-18 -24z"/>
<path d="M1650 1213 c-19 -8 -59 -23 -89 -32 -68 -21 -84 -42 -54 -71 24 -22
44 -25 71 -11 9 5 58 29 109 53 51 23 92 46 92 50 1 7 -64 28 -84 28 -5 -1
-26 -8 -45 -17z"/>
<path d="M2005 1180 c-3 -5 1 -10 9 -10 9 0 16 5 16 10 0 6 -4 10 -9 10 -6 0
-13 -4 -16 -10z"/>
<path d="M1936 1141 l-28 -19 21 -12 c18 -9 27 -8 47 5 28 18 31 30 8 39 -20
8 -14 9 -48 -13z"/>
<path d="M3940 1153 c1 -13 27 -43 38 -43 19 0 21 30 2 40 -22 12 -40 13 -40
3z"/>
<path d="M2100 1105 c-13 -14 -31 -25 -39 -25 -9 0 -29 -10 -44 -23 l-29 -22
21 -19 c20 -18 21 -18 60 13 21 17 43 31 48 31 9 0 53 54 53 65 0 15 -50 2
-70 -20z"/>
<path d="M4001 1116 c-6 -7 -9 -20 -6 -28 8 -20 71 -52 85 -43 8 5 10 2 6 -11
-9 -33 58 -94 104 -94 30 0 50 17 50 41 0 23 -112 95 -131 84 -5 -4 -8 -1 -7
6 3 13 -57 59 -77 59 -7 0 -18 -6 -24 -14z"/>
<path d="M1840 1092 c-26 -13 -35 -23 -35 -42 0 -35 45 -40 85 -8 34 27 36 36
13 54 -23 17 -22 17 -63 -4z"/>
<path d="M4346 1081 c-9 -13 27 -40 49 -36 11 2 23 4 28 4 18 2 4 20 -24 30
-38 13 -46 14 -53 2z"/>
<path d="M4436 1042 c-25 -29 -20 -38 37 -66 62 -30 89 -32 111 -10 20 20 15
28 -37 58 -61 34 -91 39 -111 18z"/>
<path d="M1926 995 c-51 -47 -21 -78 44 -45 50 26 55 35 28 54 -30 21 -41 20
-72 -9z"/>
<path d="M2168 1002 c-15 -21 -97 -77 -125 -86 -11 -4 -35 -20 -53 -36 -34
-30 -34 -31 -15 -50 20 -19 65 -18 65 1 0 5 5 9 10 9 11 0 53 34 108 88 19 17
39 32 46 32 24 0 47 25 40 43 -8 23 -59 22 -76 -1z"/>
<path d="M1553 978 c10 -36 -60 -138 -94 -138 -12 0 -19 -7 -19 -20 0 -23 84
-70 125 -70 25 0 35 23 15 35 -13 8 10 45 28 45 9 0 11 -7 7 -20 -12 -37 25
-37 57 -1 38 42 34 67 -10 63 -34 -4 -41 8 -17 28 12 10 20 9 41 -5 15 -9 29
-26 31 -36 3 -10 12 -19 20 -19 11 0 10 -6 -6 -26 -32 -40 -28 -95 9 -138 17
-19 47 -40 67 -47 45 -15 128 -7 151 15 24 21 27 21 29 -10 2 -36 32 -75 74
-97 25 -13 50 -17 98 -14 57 3 67 7 92 35 20 23 29 43 29 68 0 34 -24 94 -38
94 -4 0 -16 7 -26 15 -18 14 -16 16 29 57 67 61 86 76 123 106 39 31 41 49 6
63 -32 12 -71 2 -55 -14 7 -7 -1 -16 -27 -30 -75 -40 -162 -109 -162 -128 0
-10 6 -20 13 -20 6 -1 -10 -5 -37 -10 -27 -4 -61 -16 -75 -27 l-26 -19 -2 31
c-6 72 -76 119 -170 114 -59 -4 -61 -3 -60 20 2 21 -11 31 -93 73 -107 55
-135 61 -127 27z m343 -200 c8 -25 -3 -68 -23 -90 -12 -14 -20 -15 -35 -7 -17
9 -20 18 -15 57 7 66 56 93 73 40z m268 -94 c11 -28 6 -80 -8 -100 -12 -15
-18 -17 -33 -8 -22 13 -30 88 -12 110 15 19 45 18 53 -2z"/>
<path d="M3909 993 c-21 -5 -43 -47 -35 -68 4 -13 13 -15 32 -11 16 4 23 3 20
-3 -7 -11 16 -46 93 -144 55 -70 76 -87 108 -87 22 0 63 35 63 53 0 15 -96
117 -110 117 -5 0 -10 3 -10 8 0 11 -113 128 -130 133 -8 3 -22 4 -31 2z"/>
<path d="M4635 973 c-26 -7 -45 -22 -45 -37 0 -14 104 -79 152 -95 21 -7 48
-9 60 -5 22 6 22 6 5 -13 -9 -11 -14 -23 -10 -28 5 -4 -2 -5 -15 -2 -15 3 -40
-3 -65 -17 -23 -12 -66 -32 -94 -44 -57 -24 -74 -53 -53 -92 15 -28 41 -22 59
14 13 28 14 29 28 10 8 -10 23 -36 34 -57 16 -31 18 -41 8 -53 -9 -11 -9 -18
-1 -26 9 -9 25 -8 65 5 80 25 125 77 67 77 -18 0 -44 33 -78 97 -11 20 -10 21
28 16 31 -4 41 -2 46 11 3 9 1 23 -6 31 -10 12 -9 15 4 15 22 0 96 -97 96
-126 0 -42 52 -29 117 29 17 15 20 23 12 34 -6 7 -19 13 -28 13 -24 1 -91 90
-91 122 0 34 -21 37 -67 8 -31 -18 -32 -18 -21 -1 9 15 7 23 -8 44 -21 28 -46
42 -114 63 -47 14 -52 15 -85 7z"/>
<path d="M2507 915 c-22 -20 -37 -42 -34 -49 4 -9 -4 -16 -23 -20 -32 -6 -65
-48 -56 -71 6 -16 43 -20 62 -7 16 10 44 68 37 76 -4 3 0 6 9 6 22 0 51 37 45
55 -4 8 -2 15 3 15 6 0 10 7 10 15 0 23 -11 18 -53 -20z"/>
<path d="M3220 919 c0 -17 5 -40 12 -52 6 -12 12 -37 12 -56 1 -37 23 -58 50
-48 20 8 21 47 1 73 -8 10 -15 28 -15 40 0 20 -38 74 -53 74 -4 0 -7 -14 -7
-31z"/>
<path d="M3146 885 c-3 -8 -16 -17 -30 -21 -25 -6 -45 -36 -27 -42 6 -2 7 -37
4 -90 -5 -74 -3 -89 11 -101 13 -11 24 -12 44 -5 22 8 27 16 25 39 -1 16 2 34
6 39 5 6 12 41 16 78 6 56 5 69 -8 74 -9 3 -13 13 -10 25 6 23 -22 27 -31 4z"/>
<path d="M3778 853 c-10 -2 -21 -15 -24 -29 -5 -19 3 -32 39 -67 25 -24 48
-54 52 -66 3 -11 10 -21 16 -21 5 0 16 -17 24 -37 9 -21 23 -45 32 -55 12 -14
13 -21 4 -32 -10 -12 -8 -19 8 -35 22 -22 27 -41 11 -41 -19 0 -110 62 -110
75 0 21 -50 75 -68 75 -10 0 -28 -9 -42 -20 -22 -17 -24 -21 -12 -41 7 -11 11
-24 8 -27 -4 -3 -33 -4 -65 -3 -67 3 -81 -9 -50 -40 18 -18 20 -29 15 -67 -3
-25 -11 -51 -17 -58 -15 -19 -54 -18 -73 2 -22 21 -21 102 1 126 25 28 5 40
-67 40 -66 0 -91 -12 -73 -34 6 -7 13 -43 15 -81 6 -97 22 -111 133 -116 83
-3 85 -2 115 27 27 28 30 36 30 95 0 48 4 66 15 71 13 4 45 -1 45 -8 0 -1 5
-28 10 -59 9 -47 8 -60 -5 -81 -12 -18 -13 -26 -4 -32 20 -12 92 -5 107 10 12
12 11 17 -7 35 -18 18 -30 61 -17 61 2 0 39 -20 80 -45 42 -25 86 -45 98 -45
20 0 21 3 14 95 -5 81 -4 96 9 101 22 9 25 4 42 -72 11 -49 12 -69 4 -72 -13
-4 -15 -29 -1 -37 5 -3 55 4 112 15 80 16 108 26 130 47 35 34 44 79 25 126
-27 64 -84 79 -215 56 l-64 -11 -75 78 c-41 44 -82 89 -90 102 -11 16 -22 21
-35 16 -18 -5 -19 -2 -14 23 3 15 3 33 -2 39 -9 14 -42 23 -64 17z m437 -323
c13 -14 19 -37 19 -68 1 -43 -1 -47 -24 -50 -24 -3 -27 2 -43 62 -9 35 -17 67
-17 70 0 15 49 4 65 -14z"/>
<path d="M2846 828 c-3 -13 -5 -30 -5 -38 0 -8 -4 -30 -7 -49 -5 -23 -2 -36 7
-42 10 -6 11 -9 2 -9 -8 0 -13 -15 -13 -39 0 -40 16 -56 44 -45 17 7 31 58 20
76 -4 6 -6 37 -5 69 2 56 -10 99 -29 99 -5 0 -12 -10 -14 -22z"/>
<path d="M2965 809 c-4 -5 -4 -21 -1 -35 4 -13 2 -53 -4 -87 -8 -44 -8 -71 -1
-91 l11 -28 -65 7 c-53 6 -65 5 -65 -7 0 -8 5 -19 11 -25 7 -7 8 -31 3 -69 -5
-43 -13 -63 -32 -81 -36 -33 -19 -45 72 -51 65 -4 76 -2 76 11 0 9 -7 20 -16
25 -18 10 -16 43 4 50 7 2 16 -5 19 -17 6 -23 23 -27 41 -9 18 18 16 98 -2 98
-8 0 -18 -4 -21 -10 -11 -18 -35 -11 -35 10 0 15 7 20 29 20 15 0 40 -9 54
-20 14 -11 29 -20 34 -20 4 0 8 -24 8 -54 0 -64 19 -88 88 -112 97 -34 207 24
207 109 0 34 -35 84 -72 103 -45 24 -129 21 -173 -5 -32 -19 -35 -19 -35 -3 0
29 -21 42 -68 42 l-44 0 23 18 c21 18 22 22 12 103 -6 54 -7 88 0 96 5 7 7 20
3 28 -6 17 -51 20 -61 4z m285 -346 c29 -37 25 -97 -7 -101 -26 -4 -53 40 -53
86 0 50 27 57 60 15z"/>
<path d="M3559 806 c-8 -38 4 -63 37 -78 13 -6 24 -20 24 -31 0 -34 39 -87 65
-87 54 0 76 38 35 60 -11 6 -20 17 -20 24 0 8 -7 16 -15 20 -8 3 -15 12 -15
19 0 25 -107 94 -111 73z"/>
<path d="M2321 691 c-12 -8 -12 -12 -2 -25 19 -23 -31 -152 -62 -160 -19 -5
-20 -7 -7 -19 19 -17 166 -57 211 -57 108 0 170 142 88 202 -14 11 -68 30
-120 43 -52 14 -94 25 -94 25 0 0 -6 -4 -14 -9z m144 -78 c13 -12 16 -27 12
-56 -6 -46 -32 -77 -64 -77 -33 0 -31 19 12 138 6 17 20 15 40 -5z"/>
<path d="M2760 686 c0 -9 5 -16 10 -16 6 0 10 4 10 9 0 6 -4 13 -10 16 -5 3
-10 -1 -10 -9z"/>
<path d="M4412 658 c-7 -7 -12 -44 -12 -98 0 -62 -4 -92 -16 -108 -34 -49 5
-62 79 -25 33 16 34 29 5 39 -22 7 -22 8 7 20 46 20 64 18 57 -8 -5 -20 -3
-21 41 -15 89 12 144 48 100 64 -10 3 -36 20 -58 38 -106 84 -138 105 -164
105 -15 0 -32 -5 -39 -12z m68 -98 c13 -9 13 -11 0 -20 -22 -15 -30 -12 -30
10 0 22 8 25 30 10z"/>
<path d="M0 10 c0 -7 977 -10 2910 -10 1933 0 2910 3 2910 10 0 7 -977 10
-2910 10 -1933 0 -2910 -3 -2910 -10z"/>
</g>
</svg>
